<svg width="100" height="100" viewBox="0 0 100 100" fill="none" xmlns="http://www.w3.org/2000/svg">
<circle cx="50" cy="50" r="50" fill="#FFAB36"/>
<g clip-path="url(#clip0_36_120)">
<path d="M49.9065 69.7342C51.6151 69.7342 53.0002 68.3491 53.0002 66.6405C53.0002 64.9319 51.6151 63.5468 49.9065 63.5468C48.1979 63.5468 46.8127 64.9319 46.8127 66.6405C46.8127 68.3491 48.1979 69.7342 49.9065 69.7342Z" fill="white"/>
<path d="M73.4966 40.5185C67.3345 33.907 58.9901 30.2657 49.9996 30.2656C41.01 30.2657 32.6656 33.907 26.5033 40.5185C25.7974 41.276 25.8391 42.4625 26.5966 43.1685C27.3542 43.8744 28.5406 43.8328 29.2466 43.0752C34.6916 37.2331 42.0618 34.0157 50.0003 34.0156C57.9381 34.0157 65.3083 37.2331 70.7533 43.0752C71.1226 43.4714 71.6233 43.6718 72.1254 43.6718C72.5831 43.6718 73.042 43.5052 73.4034 43.1685C74.1608 42.4624 74.2027 41.276 73.4966 40.5185Z" fill="white"/>
<path d="M66.6118 48.2617C62.0568 43.6722 56.1572 41.1448 49.9997 41.145C43.8408 41.1451 37.9412 43.6726 33.3875 48.2618C32.6582 48.9969 32.6628 50.1841 33.3979 50.9135C34.1329 51.6428 35.3201 51.6382 36.0495 50.9032C39.8937 47.0289 44.848 44.8951 49.9997 44.895C55.1502 44.8948 60.1045 47.0287 63.9501 50.9033C64.3166 51.2726 64.7987 51.4575 65.2809 51.4575C65.7583 51.4575 66.2361 51.2762 66.6019 50.9133C67.3368 50.1838 67.3413 48.9967 66.6118 48.2617Z" fill="white"/>
<path d="M59.1078 56.0272C56.6685 53.6105 53.1719 52.1093 49.9823 52.1093C49.982 52.1093 49.9813 52.1093 49.9809 52.1093H49.8458C49.8453 52.1093 49.845 52.1093 49.8444 52.1093C46.6548 52.1093 43.1579 53.6106 40.7186 56.0272C39.9831 56.7561 39.9775 57.9432 40.7063 58.6789C41.073 59.0489 41.5556 59.2342 42.0383 59.2342C42.5153 59.2342 42.9923 59.0534 43.3579 58.6912C45.0944 56.9707 47.6404 55.8592 49.8446 55.8592C49.8449 55.8592 49.8453 55.8592 49.8456 55.8592H49.9812C49.9816 55.8592 49.9817 55.8592 49.9821 55.8592C52.186 55.8592 54.7322 56.9708 56.4685 58.6912C57.2041 59.42 58.3914 59.4147 59.1201 58.6789C59.849 57.9433 59.8435 56.7561 59.1078 56.0272Z" fill="white"/>
</g>
<defs>
<clipPath id="clip0_36_120">
<rect width="48" height="48" fill="white" transform="translate(26 26)"/>
</clipPath>
</defs>
</svg>
