<svg width="100" height="100" viewBox="0 0 100 100" fill="none" xmlns="http://www.w3.org/2000/svg">
<circle cx="50" cy="50" r="50" fill="#FFAB36"/>
<rect width="48" height="48" transform="translate(26 26)" fill="#FFAB36"/>
<path d="M29.75 49.2503C29.75 49.2834 29.7522 49.3166 29.7566 49.3495L32.583 70.5476C32.6565 71.0875 32.9227 71.5825 33.3326 71.9414C33.7426 72.3003 34.2684 72.4988 34.8133 72.5003H66.5C67.0965 72.4996 67.6684 72.2623 68.0903 71.8405C68.5121 71.4187 68.7493 70.8468 68.75 70.2503V67.3L71.7434 44.8495C71.7434 44.8462 71.7434 44.843 71.7442 44.8401C71.746 44.8249 71.7469 44.8095 71.7478 44.7941C71.7485 44.7828 71.7494 44.7717 71.7495 44.7604C71.7495 44.7571 71.7495 44.7539 71.7495 44.751V41.7503C71.7495 41.5514 71.6705 41.3606 71.5299 41.2199C71.3892 41.0793 71.1984 41.0003 70.9995 41.0003H56C55.8011 41.0003 55.6103 41.0793 55.4697 41.2199C55.329 41.3606 55.25 41.5514 55.25 41.7503V44.7503C55.25 44.7537 55.25 44.7568 55.25 44.7597C55.25 44.7709 55.251 44.7821 55.2517 44.7933C55.2526 44.8088 55.2536 44.8242 55.2553 44.8393C55.2553 44.8425 55.2553 44.8457 55.2561 44.8487L56.6388 55.2189C55.1309 55.1043 54.6648 54.6962 54.5283 54.5049C54.4797 54.4361 54.4472 54.3572 54.4332 54.2742C54.4192 54.1911 54.4242 54.106 54.4476 54.0251C54.4983 53.914 54.5197 53.7918 54.5098 53.6701C54.5 53.5484 54.4592 53.4312 54.3913 53.3297C54.3209 53.2252 54.2252 53.1401 54.113 53.0825C54.0009 53.0249 53.876 52.9966 53.75 53.0003C52.2578 53.0003 51.1077 53.2909 50.1603 53.7227L50.7434 49.3495C50.7478 49.3166 50.75 49.2834 50.75 49.2503C50.7486 47.4532 50.251 45.6913 49.3122 44.159C48.3733 42.6266 47.0297 41.3832 45.4292 40.5657C45.4932 40.429 45.5143 40.276 45.4898 40.127L44.7398 35.627C44.7106 35.4519 44.6202 35.2928 44.4848 35.178C44.3493 35.0633 44.1775 35.0003 44 35.0003H43.25V32.0003H48.5C48.6989 32.0003 48.8897 31.9213 49.0303 31.7806C49.171 31.64 49.25 31.4492 49.25 31.2503V28.2503C49.25 28.1476 49.2289 28.046 49.188 27.9518C49.1472 27.8576 49.0874 27.7728 49.0124 27.7026C48.9374 27.6325 48.8488 27.5785 48.7521 27.5439C48.6554 27.5094 48.5526 27.4951 48.4501 27.502L37.2001 28.252C37.0516 28.2619 36.9093 28.3158 36.7915 28.4068C36.6737 28.4978 36.5856 28.6218 36.5385 28.7631L35.7885 31.0131C35.751 31.1258 35.7407 31.2459 35.7586 31.3634C35.7765 31.4808 35.8221 31.5924 35.8916 31.6888C35.9611 31.7852 36.0525 31.8637 36.1582 31.9179C36.264 31.972 36.3812 32.0003 36.5 32.0003H37.25V35.0003H36.5C36.3225 35.0003 36.1507 35.0633 36.0152 35.178C35.8798 35.2928 35.7894 35.4519 35.7602 35.627L35.0102 40.127C34.9857 40.276 35.0068 40.429 35.0708 40.5657C33.4703 41.3832 32.1267 42.6266 31.1878 44.159C30.249 45.6913 29.7514 47.4532 29.75 49.2503ZM60.5 71.0003H42.4032C42.23 71.0001 42.064 70.9312 41.9415 70.8088C41.819 70.6863 41.7502 70.5203 41.75 70.3471V62.6534C41.7502 62.4803 41.819 62.3142 41.9415 62.1918C42.064 62.0693 42.23 62.0004 42.4032 62.0003H60.5968C60.77 62.0004 60.9361 62.0693 61.0585 62.1918C61.181 62.3142 61.2498 62.4803 61.25 62.6534V70.3471C61.2498 70.5203 61.181 70.6863 61.0585 70.8088C60.9361 70.9312 60.77 71.0001 60.5968 71.0003H60.5ZM44 59.0003H59V60.5003H44V59.0003ZM67.25 70.2503C67.2498 70.4491 67.1707 70.6398 67.0301 70.7804C66.8895 70.921 66.6988 71 66.5 71.0003H62.6485C62.7158 70.7891 62.7501 70.5688 62.75 70.3471V68.0003H67.25V70.2503ZM67.3438 66.5003H62.75V62.6534C62.7494 62.0826 62.5223 61.5353 62.1186 61.1316C61.715 60.728 61.1677 60.5009 60.5968 60.5003H60.5V58.2503C60.5 58.2293 60.4986 58.2086 60.4969 58.188C60.4969 58.1851 60.4962 58.1798 60.4957 58.1751V58.1726C60.4393 57.681 60.2906 57.2045 60.0576 56.768C59.8697 56.4012 59.6023 56.0809 59.275 55.8305C58.9478 55.58 58.5688 55.4056 58.1656 55.32L56.8566 45.5003H70.1434L67.3438 66.5003ZM56.75 42.5003H70.25V44.0003H56.75V42.5003ZM53.2736 55.3274C53.9078 56.2716 55.3297 56.7503 57.5 56.7503C58.0625 56.7503 58.45 56.9724 58.7206 57.4494C58.73 57.4663 58.7394 57.4833 58.748 57.5003H47.4707C47.7908 57.255 48.0956 56.9975 48.3977 56.7418C49.6189 55.7084 50.7795 54.7262 52.9545 54.5341C53.0028 54.8184 53.1116 55.0889 53.2736 55.3274ZM37.8023 29.7151L47.75 29.0519V30.5003H37.5406L37.8023 29.7151ZM38.75 32.0003H41.75V35.0003H38.75V32.0003ZM36.6354 39.5003L37.1353 36.5003H43.3647L43.8646 39.5003H36.6354ZM39.5 41.0003H41C43.1789 41.0027 45.2685 41.866 46.8138 43.4021C48.359 44.9382 49.2347 47.0227 49.25 49.2015L48.5146 54.7159C48.1287 55.0047 47.7731 55.3052 47.4287 55.5966C46.2219 56.6182 45.1793 57.5003 43.25 57.5003C43.0511 57.5003 42.8603 57.5793 42.7197 57.7199C42.579 57.8606 42.5 58.0514 42.5 58.2503V60.5003H42.4032C41.8323 60.5009 41.285 60.728 40.8814 61.1316C40.4777 61.5353 40.2506 62.0826 40.25 62.6534V70.3471C40.2499 70.5688 40.2842 70.7891 40.3515 71.0003H34.8133C34.6316 70.9998 34.4564 70.9336 34.3197 70.814C34.1831 70.6943 34.0943 70.5293 34.0698 70.3494L31.25 49.2015C31.2653 47.0227 32.141 44.9382 33.6862 43.4021C35.2315 41.866 37.3211 41.0027 39.5 41.0003Z" fill="white"/>
<path d="M51.5 63.5C50.9067 63.5 50.3266 63.6759 49.8333 64.0056C49.3399 64.3352 48.9554 64.8038 48.7284 65.352C48.5013 65.9001 48.4419 66.5033 48.5576 67.0853C48.6734 67.6672 48.9591 68.2018 49.3787 68.6213C49.7982 69.0409 50.3328 69.3266 50.9147 69.4424C51.4967 69.5581 52.0999 69.4987 52.6481 69.2717C53.1962 69.0446 53.6648 68.6601 53.9944 68.1667C54.3241 67.6734 54.5 67.0934 54.5 66.5C54.4991 65.7046 54.1828 64.9421 53.6203 64.3797C53.0579 63.8173 52.2954 63.5009 51.5 63.5ZM51.5 68C51.2033 68 50.9133 67.912 50.6667 67.7472C50.42 67.5824 50.2277 67.3481 50.1142 67.074C50.0007 66.7999 49.9709 66.4983 50.0288 66.2074C50.0867 65.9164 50.2296 65.6491 50.4393 65.4393C50.6491 65.2296 50.9164 65.0867 51.2074 65.0288C51.4983 64.9709 51.7999 65.0007 52.074 65.1142C52.3481 65.2277 52.5824 65.42 52.7472 65.6666C52.912 65.9133 53 66.2033 53 66.5C52.9995 66.8977 52.8414 67.2789 52.5602 67.5602C52.2789 67.8414 51.8977 67.9995 51.5 68Z" fill="white"/>
<path d="M63.5 53C65.6375 53 67.25 52.0328 67.25 50.75C67.25 49.4672 65.6375 48.5 63.5 48.5C61.3625 48.5 59.75 49.4672 59.75 50.75C59.75 52.0328 61.3625 53 63.5 53ZM63.5 50C64.952 50 65.75 50.5633 65.75 50.75C65.75 50.9367 64.952 51.5 63.5 51.5C62.048 51.5 61.25 50.9367 61.25 50.75C61.25 50.5633 62.048 50 63.5 50Z" fill="white"/>
<path d="M35.75 52.25H44.75C44.9489 52.25 45.1397 52.171 45.2803 52.0303C45.421 51.8897 45.5 51.6989 45.5 51.5V47C45.5 46.8011 45.421 46.6103 45.2803 46.4697C45.1397 46.329 44.9489 46.25 44.75 46.25H35.75C35.5511 46.25 35.3603 46.329 35.2197 46.4697C35.079 46.6103 35 46.8011 35 47V51.5C35 51.6989 35.079 51.8897 35.2197 52.0303C35.3603 52.171 35.5511 52.25 35.75 52.25ZM36.5 47.75H44V50.75H36.5V47.75Z" fill="white"/>
</svg>
