<svg width="100" height="100" viewBox="0 0 100 100" fill="none" xmlns="http://www.w3.org/2000/svg">
<circle cx="50" cy="50" r="50" fill="#FFAB36"/>
<path d="M50 26C38.3689 26 28.9062 35.4627 28.9062 47.0938C28.9062 48.3827 28.9062 58.3539 28.9062 58.5312C28.9062 60.8575 30.7988 62.75 33.125 62.75H34.7731C35.3536 64.3867 36.9167 65.5625 38.75 65.5625C41.0762 65.5625 42.9688 63.67 42.9688 61.3438V49.9062C42.9688 47.58 41.0762 45.6875 38.75 45.6875C36.9167 45.6875 35.3536 46.8633 34.7731 48.5H33.125C32.632 48.5 32.1589 48.5858 31.7188 48.7419V47.0938C31.7188 37.0135 39.9197 28.8125 50 28.8125C60.0803 28.8125 68.2812 37.0135 68.2812 47.0938V48.7419C67.8411 48.5858 67.368 48.5 66.875 48.5H65.2269C64.6464 46.8633 63.0833 45.6875 61.25 45.6875C58.9238 45.6875 57.0312 47.58 57.0312 49.9062V61.3438C57.0312 63.67 58.9238 65.5625 61.25 65.5625C61.6757 65.5625 62.0867 65.4986 62.4745 65.3807C61.9484 67.1115 60.338 68.375 58.4375 68.375H53.9769C53.3964 66.7383 51.8333 65.5625 50 65.5625C47.6738 65.5625 45.7812 67.455 45.7812 69.7812C45.7812 72.1075 47.6738 74 50 74C51.8333 74 53.3964 72.8242 53.9769 71.1875H58.4375C62.3145 71.1875 65.4688 68.0333 65.4688 64.1562V62.75H66.875C69.2012 62.75 71.0938 60.8575 71.0938 58.5312C71.0938 58.3565 71.0938 48.3817 71.0938 47.0938C71.0938 35.4627 61.6311 26 50 26ZM37.3438 49.9062C37.3438 49.1308 37.9746 48.5 38.75 48.5C39.5254 48.5 40.1562 49.1308 40.1562 49.9062V61.3438C40.1562 62.1192 39.5254 62.75 38.75 62.75C37.9746 62.75 37.3438 62.1192 37.3438 61.3438V49.9062ZM33.125 51.3125H34.5312V59.9375H33.125C32.3496 59.9375 31.7188 59.3067 31.7188 58.5312V52.7188C31.7188 51.9433 32.3496 51.3125 33.125 51.3125ZM50 71.1875C49.2246 71.1875 48.5938 70.5567 48.5938 69.7812C48.5938 69.0058 49.2246 68.375 50 68.375C50.7754 68.375 51.4062 69.0058 51.4062 69.7812C51.4062 70.5567 50.7754 71.1875 50 71.1875ZM62.6562 61.3438C62.6562 62.1192 62.0254 62.75 61.25 62.75C60.4746 62.75 59.8438 62.1192 59.8438 61.3438V49.9062C59.8438 49.1308 60.4746 48.5 61.25 48.5C62.0254 48.5 62.6562 49.1308 62.6562 49.9062V61.3438ZM68.2812 58.5312C68.2812 59.3067 67.6504 59.9375 66.875 59.9375H65.4688V51.3125H66.875C67.6504 51.3125 68.2812 51.9433 68.2812 52.7188V58.5312Z" fill="white"/>
</svg>
