<svg width="100" height="100" viewBox="0 0 100 100" fill="none" xmlns="http://www.w3.org/2000/svg">
<circle cx="50" cy="50" r="50" fill="#FFAB36"/>
<path d="M68 56.079V35C68 32.9324 66.3176 31.25 64.25 31.25H62.75V29.75C62.75 28.5093 61.7407 27.5 60.5 27.5C59.2593 27.5 58.25 28.5093 58.25 29.75V31.25H54.5V29.75C54.5 28.5093 53.4907 27.5 52.25 27.5C51.0093 27.5 50 28.5093 50 29.75V31.25H45.5V29.75C45.5 28.5093 44.4907 27.5 43.25 27.5C42.0093 27.5 41 28.5093 41 29.75V31.25H37.25V29.75C37.25 28.5093 36.2407 27.5 35 27.5C33.7593 27.5 32.75 28.5093 32.75 29.75V31.25H31.25C29.1824 31.25 27.5 32.9324 27.5 35V65C27.5 67.0676 29.1824 68.75 31.25 68.75H56.4676C58.0266 71.4356 60.9272 73.25 64.25 73.25C69.2129 73.25 73.25 69.2129 73.25 64.25C73.25 60.6264 71.0933 57.5044 68 56.079ZM59.75 29.75C59.75 29.3362 60.0862 29 60.5 29C60.9138 29 61.25 29.3362 61.25 29.75V34.25C61.25 34.6638 60.9138 35 60.5 35C60.0862 35 59.75 34.6638 59.75 34.25V29.75ZM51.5 29.75C51.5 29.3362 51.8362 29 52.25 29C52.6638 29 53 29.3362 53 29.75V34.25C53 34.6638 52.6638 35 52.25 35C51.8362 35 51.5 34.6638 51.5 34.25V29.75ZM42.5 29.75C42.5 29.3362 42.8362 29 43.25 29C43.6638 29 44 29.3362 44 29.75V34.25C44 34.6638 43.6638 35 43.25 35C42.8362 35 42.5 34.6638 42.5 34.25V29.75ZM34.25 29.75C34.25 29.3362 34.5862 29 35 29C35.4138 29 35.75 29.3362 35.75 29.75V34.25C35.75 34.6638 35.4138 35 35 35C34.5862 35 34.25 34.6638 34.25 34.25V29.75ZM31.25 32.75H32.75V34.25C32.75 35.4907 33.7593 36.5 35 36.5C36.2407 36.5 37.25 35.4907 37.25 34.25V32.75H41V34.25C41 35.4907 42.0093 36.5 43.25 36.5C44.4907 36.5 45.5 35.4907 45.5 34.25V32.75H50V34.25C50 35.4907 51.0093 36.5 52.25 36.5C53.4907 36.5 54.5 35.4907 54.5 34.25V32.75H58.25V34.25C58.25 35.4907 59.2593 36.5 60.5 36.5C61.7407 36.5 62.75 35.4907 62.75 34.25V32.75H64.25C65.4907 32.75 66.5 33.7593 66.5 35V38.75H29V35C29 33.7593 30.0093 32.75 31.25 32.75ZM31.25 67.25C30.0093 67.25 29 66.2407 29 65V40.25H66.5V55.5461C65.7794 55.3596 65.0282 55.25 64.25 55.25C63.7379 55.25 63.2389 55.3029 62.75 55.3854V51.5C62.75 51.0855 62.4145 50.75 62 50.75H57.5C57.0855 50.75 56.75 51.0855 56.75 51.5V56C56.75 56.4145 57.0855 56.75 57.5 56.75H59.2856C56.8563 58.3633 55.25 61.1213 55.25 64.25C55.25 65.3031 55.4412 66.31 55.775 67.25H31.25ZM61.25 55.25H58.25V52.25H61.25V55.25ZM64.25 71.75C60.1147 71.75 56.75 68.3853 56.75 64.25C56.75 60.1147 60.1147 56.75 64.25 56.75C68.3853 56.75 71.75 60.1147 71.75 64.25C71.75 68.3853 68.3853 71.75 64.25 71.75Z" fill="white"/>
<path d="M65 62.9581V58.25H63.5V62.9581C63.0535 63.2179 62.75 63.6961 62.75 64.25C62.75 64.3259 62.7614 64.3988 62.7723 64.4716L60.0312 66.6641L60.9688 67.8359L63.7075 65.6449C63.8761 65.7106 64.0581 65.75 64.25 65.75C65.0784 65.75 65.75 65.0784 65.75 64.25C65.75 63.6962 65.4465 63.2179 65 62.9581Z" fill="white"/>
<path d="M37.25 42.5H32.75C32.3355 42.5 32 42.8355 32 43.25V47.75C32 48.1645 32.3355 48.5 32.75 48.5H37.25C37.6645 48.5 38 48.1645 38 47.75V43.25C38 42.8355 37.6645 42.5 37.25 42.5ZM36.5 47H33.5V44H36.5V47Z" fill="white"/>
<path d="M45.5 42.5H41C40.5855 42.5 40.25 42.8355 40.25 43.25V47.75C40.25 48.1645 40.5855 48.5 41 48.5H45.5C45.9145 48.5 46.25 48.1645 46.25 47.75V43.25C46.25 42.8355 45.9145 42.5 45.5 42.5ZM44.75 47H41.75V44H44.75V47Z" fill="white"/>
<path d="M53.75 42.5H49.25C48.8355 42.5 48.5 42.8355 48.5 43.25V47.75C48.5 48.1645 48.8355 48.5 49.25 48.5H53.75C54.1645 48.5 54.5 48.1645 54.5 47.75V43.25C54.5 42.8355 54.1645 42.5 53.75 42.5ZM53 47H50V44H53V47Z" fill="white"/>
<path d="M57.5 48.5H62C62.4145 48.5 62.75 48.1645 62.75 47.75V43.25C62.75 42.8355 62.4145 42.5 62 42.5H57.5C57.0855 42.5 56.75 42.8355 56.75 43.25V47.75C56.75 48.1645 57.0855 48.5 57.5 48.5ZM58.25 44H61.25V47H58.25V44Z" fill="white"/>
<path d="M37.25 50.75H32.75C32.3355 50.75 32 51.0855 32 51.5V56C32 56.4145 32.3355 56.75 32.75 56.75H37.25C37.6645 56.75 38 56.4145 38 56V51.5C38 51.0855 37.6645 50.75 37.25 50.75ZM36.5 55.25H33.5V52.25H36.5V55.25Z" fill="white"/>
<path d="M45.5 50.75H41C40.5855 50.75 40.25 51.0855 40.25 51.5V56C40.25 56.4145 40.5855 56.75 41 56.75H45.5C45.9145 56.75 46.25 56.4145 46.25 56V51.5C46.25 51.0855 45.9145 50.75 45.5 50.75ZM44.75 55.25H41.75V52.25H44.75V55.25Z" fill="white"/>
<path d="M53.75 50.75H49.25C48.8355 50.75 48.5 51.0855 48.5 51.5V56C48.5 56.4145 48.8355 56.75 49.25 56.75H53.75C54.1645 56.75 54.5 56.4145 54.5 56V51.5C54.5 51.0855 54.1645 50.75 53.75 50.75ZM53 55.25H50V52.25H53V55.25Z" fill="white"/>
<path d="M37.25 59H32.75C32.3355 59 32 59.3355 32 59.75V64.25C32 64.6645 32.3355 65 32.75 65H37.25C37.6645 65 38 64.6645 38 64.25V59.75C38 59.3355 37.6645 59 37.25 59ZM36.5 63.5H33.5V60.5H36.5V63.5Z" fill="white"/>
<path d="M45.5 59H41C40.5855 59 40.25 59.3355 40.25 59.75V64.25C40.25 64.6645 40.5855 65 41 65H45.5C45.9145 65 46.25 64.6645 46.25 64.25V59.75C46.25 59.3355 45.9145 59 45.5 59ZM44.75 63.5H41.75V60.5H44.75V63.5Z" fill="white"/>
<path d="M53.75 59H49.25C48.8355 59 48.5 59.3355 48.5 59.75V64.25C48.5 64.6645 48.8355 65 49.25 65H53.75C54.1645 65 54.5 64.6645 54.5 64.25V59.75C54.5 59.3355 54.1645 59 53.75 59ZM53 63.5H50V60.5H53V63.5Z" fill="white"/>
</svg>
