<svg width="100" height="100" viewBox="0 0 100 100" fill="none" xmlns="http://www.w3.org/2000/svg">
<circle cx="50" cy="50" r="50" fill="#FFAB36"/>
<g clip-path="url(#clip0_36_147)">
<path d="M71.9884 57.7643L69.4795 60.2731C68.4196 61.3303 66.7042 61.3303 65.6443 60.2731C63.9332 58.5609 61.158 58.5602 59.4459 60.2713C59.4453 60.2719 59.4447 60.2725 59.4441 60.2731C58.371 61.2974 56.6821 61.2974 55.6089 60.2731C53.8978 58.5609 51.1226 58.5602 49.4105 60.2713C49.4099 60.2719 49.4094 60.2725 49.4087 60.2731C48.3356 61.2974 46.6467 61.2974 45.5735 60.2731C43.8624 58.5609 41.0872 58.5602 39.3751 60.2713C39.3745 60.2719 39.374 60.2725 39.3733 60.2731C38.3135 61.3303 36.598 61.3303 35.5381 60.2731C33.827 58.5609 31.0518 58.5602 29.3397 60.2713C29.3391 60.2719 29.3386 60.2725 29.3379 60.2731L26.8291 62.7819L28.0116 63.9644L30.5205 61.4556C31.5936 60.4313 33.2825 60.4313 34.3556 61.4556C36.0689 63.1652 38.8426 63.1652 40.5558 61.4556C41.629 60.4313 43.3179 60.4313 44.391 61.4556C46.1043 63.1652 48.878 63.1652 50.5912 61.4556C51.6644 60.4313 53.3533 60.4313 54.4264 61.4556C56.1397 63.1652 58.9134 63.1652 60.6266 61.4556C61.6998 60.4313 63.3887 60.4313 64.4618 61.4556C66.1751 63.1648 68.9487 63.1648 70.662 61.4556L73.1709 58.9468L71.9884 57.7643Z" fill="white"/>
<path d="M71.9884 62.7819L69.4795 65.2907C68.4194 66.3474 66.7044 66.3474 65.6443 65.2907C63.9332 63.5786 61.158 63.5778 59.4459 65.289C59.4453 65.2896 59.4447 65.2901 59.4441 65.2907C58.371 66.3151 56.6821 66.3151 55.6089 65.2907C53.8978 63.5786 51.1226 63.5778 49.4105 65.289C49.4099 65.2896 49.4094 65.2901 49.4087 65.2907C48.3356 66.3151 46.6467 66.3151 45.5735 65.2907C43.8624 63.5786 41.0872 63.5778 39.3751 65.289C39.3745 65.2896 39.374 65.2901 39.3733 65.2907C38.3132 66.3474 36.5982 66.3474 35.5381 65.2907C33.827 63.5786 31.0518 63.5778 29.3397 65.289C29.3391 65.2896 29.3386 65.2901 29.3379 65.2907L26.8291 67.7996L28.0116 68.9821L30.5205 66.4732C31.5936 65.4489 33.2825 65.4489 34.3556 66.4732C36.0689 68.1828 38.8426 68.1828 40.5558 66.4732C41.629 65.4489 43.3179 65.4489 44.391 66.4732C46.1043 68.1828 48.878 68.1828 50.5912 66.4732C51.6644 65.4489 53.3533 65.4489 54.4264 66.4732C56.1397 68.1828 58.9134 68.1828 60.6266 66.4732C61.6998 65.4489 63.3887 65.4489 64.4618 66.4732C66.1751 68.1824 68.9487 68.1824 70.662 66.4732L73.1709 63.9644L71.9884 62.7819Z" fill="white"/>
<path d="M71.9884 67.7995L69.4795 70.3084C68.4196 71.3655 66.7042 71.3655 65.6443 70.3084C63.9332 68.5962 61.158 68.5954 59.4459 70.3066C59.4453 70.3072 59.4447 70.3077 59.4441 70.3084C58.371 71.3327 56.6821 71.3327 55.6089 70.3084C53.8978 68.5962 51.1226 68.5954 49.4105 70.3066C49.4099 70.3072 49.4094 70.3077 49.4087 70.3084C48.3356 71.3327 46.6467 71.3327 45.5735 70.3084C43.8624 68.5962 41.0872 68.5954 39.3751 70.3066C39.3745 70.3072 39.374 70.3077 39.3733 70.3084C38.3135 71.3655 36.598 71.3655 35.5381 70.3084C33.827 68.5962 31.0518 68.5954 29.3397 70.3066C29.3391 70.3072 29.3386 70.3077 29.3379 70.3084L26.8291 72.8172L28.0116 73.9997L30.5205 71.4909C31.5936 70.4665 33.2825 70.4665 34.3556 71.4909C36.0689 73.2004 38.8426 73.2004 40.5558 71.4909C41.629 70.4665 43.3179 70.4665 44.391 71.4909C46.1043 73.2004 48.878 73.2004 50.5912 71.4909C51.6644 70.4665 53.3533 70.4665 54.4264 71.4909C56.1397 73.2004 58.9134 73.2004 60.6266 71.4909C61.6998 70.4665 63.3887 70.4665 64.4618 71.4909C66.1751 73.2 68.9487 73.2 70.662 71.4909L73.1709 68.982L71.9884 67.7995Z" fill="white"/>
<path d="M61.4629 50.2385L50.2065 38.9821C49.8218 38.5974 49.8217 37.9737 50.2065 37.5889L56.8642 30.9321C57.9965 29.7963 57.9965 27.9584 56.8642 26.8226C55.7136 25.7255 53.9043 25.7255 52.7538 26.8226L45.9858 33.5889C43.3958 36.1834 43.3958 40.3851 45.9858 42.9796L47.6776 44.6714L35.1919 57.1579L36.3744 58.3404L49.4522 45.2626C49.7786 44.936 49.7786 44.4067 49.4522 44.0801L47.1691 41.7971C45.2326 39.8558 45.2326 36.7135 47.1691 34.7723L53.9372 28.0051C54.4251 27.5394 55.1928 27.5394 55.6808 28.0051C56.1617 28.4872 56.1617 29.2675 55.6808 29.7496L49.024 36.4064C47.9862 37.4437 47.9858 39.126 49.0232 40.1638C49.0235 40.1641 49.0238 40.1644 49.024 40.1646L60.2804 51.421L67.8069 58.9475L68.9894 57.765L61.4629 50.2385Z" fill="white"/>
<path d="M61.7081 35.7763C58.9369 35.7763 56.6904 38.0228 56.6904 40.794C56.6931 43.5641 58.938 45.809 61.7081 45.8117C64.4794 45.8117 66.7258 43.5652 66.7258 40.794C66.7258 38.0229 64.4793 35.7763 61.7081 35.7763ZM61.7081 44.1391C59.8607 44.1391 58.363 42.6415 58.363 40.794C58.363 38.9465 59.8607 37.4489 61.7081 37.4489C63.5556 37.4489 65.0533 38.9465 65.0533 40.794C65.0533 42.6415 63.5556 44.1391 61.7081 44.1391Z" fill="white"/>
<path d="M58.5359 53.165C58.2093 52.8385 57.6799 52.8385 57.3534 53.165L53.5901 56.9283L54.7726 58.1108L57.9446 54.9387L61.1166 58.1108L62.2991 56.9283L58.5359 53.165Z" fill="white"/>
</g>
<defs>
<clipPath id="clip0_36_147">
<rect width="48" height="48" fill="white" transform="translate(26 26)"/>
</clipPath>
</defs>
</svg>
