<svg width="100" height="100" viewBox="0 0 100 100" fill="none" xmlns="http://www.w3.org/2000/svg">
<circle cx="50" cy="50" r="50" fill="#FFAB36"/>
<path d="M50 40.1562C44.5722 40.1562 40.1562 44.5722 40.1562 50C40.1562 55.4278 44.5722 59.8438 50 59.8438C55.4278 59.8438 59.8438 55.4278 59.8438 50C59.8438 44.5722 55.4278 40.1562 50 40.1562ZM50 57.0312C46.123 57.0312 42.9688 53.877 42.9688 50C42.9688 46.123 46.123 42.9688 50 42.9688C53.877 42.9688 57.0312 46.123 57.0312 50C57.0312 53.877 53.877 57.0312 50 57.0312Z" fill="white"/>
<path d="M72.5938 28.8125C68.2841 28.8125 64.6191 31.6234 63.3343 35.5079C56.9091 29.5823 47.3579 28.6338 39.875 33.1114V30.2779C39.875 29.5013 39.2454 28.8717 38.4688 28.8717C37.6921 28.8717 37.0625 29.5013 37.0625 30.2779V40.1562H34.3438V30.2779C34.3438 29.5013 33.7141 28.8717 32.9375 28.8717C32.1609 28.8717 31.5312 29.5013 31.5312 30.2779V40.1562H28.8125V30.2779C28.8125 29.5013 28.1829 28.8717 27.4062 28.8717C26.6296 28.8717 26 29.5013 26 30.2779V41.5625C26 44.0546 27.3213 46.2431 29.2996 47.4665L28.4028 66.5016C28.2831 69.0454 30.3066 71.1875 32.8733 71.1875C35.4433 71.1875 37.4895 69.02 37.341 66.4538L37.2578 65.0145C46.1227 72.5532 59.5995 70.7704 66.2172 61.1696L65.792 66.6666C65.6074 69.0522 67.4975 71.0938 69.8898 71.0938C72.1562 71.0938 74 69.25 74 66.9836V30.2188C74 29.4421 73.3704 28.8125 72.5938 28.8125ZM29.0596 42.9688H36.8154C35.4991 46.5871 30.3744 46.5832 29.0596 42.9688ZM32.8732 68.375C31.927 68.375 31.1673 67.5866 31.2122 66.634L32.0693 48.4437C32.6199 48.5128 33.045 48.5109 33.484 48.4765L34.5334 66.6162C34.5883 67.568 33.834 68.375 32.8732 68.375ZM37.0129 60.7817L36.2534 47.6546C38.4093 46.4764 39.875 44.1875 39.875 41.5625V36.4937C46.9246 31.1908 57.0045 32.203 62.8438 39.0481V52.7188C62.8438 53.4954 63.4734 54.125 64.25 54.125H66.3725C63.0268 67.5348 45.8104 71.3671 37.0129 60.7817ZM71.1875 66.9836C71.1875 67.6992 70.6054 68.2812 69.8898 68.2812C69.1373 68.2812 68.5374 67.6426 68.5961 66.8835L69.6833 52.8271C69.7464 52.0112 69.1008 51.3125 68.2812 51.3125H65.6562V38.5625C65.6562 35.2188 68.034 32.42 71.1875 31.7682V66.9836Z" fill="white"/>
</svg>
