<svg width="60" height="60" viewBox="0 0 60 60" fill="none" xmlns="http://www.w3.org/2000/svg">
<path d="M48.3293 0H11.6705C5.56996 0 0.624756 4.94544 0.624756 11.0458V35.0894C0.624756 41.1898 5.57019 46.1352 11.6705 46.1352H16.9315C17.1819 46.1352 17.3847 46.338 17.3847 46.5883V58.4485C17.3847 59.8508 19.1 60.5307 20.0606 59.5091L32.5045 46.2779C32.5902 46.1867 32.7097 46.1352 32.8347 46.1352H48.3293C54.4297 46.1352 59.3751 41.1897 59.3751 35.0894V11.0458C59.3751 4.94544 54.4296 0 48.3293 0Z" fill="#EC5569"/>
<path d="M22.0318 42.0129C22.0318 41.7493 21.8354 41.5357 21.593 41.5357H16.4998C10.594 41.5357 5.80645 36.328 5.80645 29.904V4.58475C5.80645 3.49771 5.94402 2.44572 6.20031 1.44763C2.86972 3.35006 0.624756 6.93565 0.624756 11.0458V35.0894C0.624756 41.1897 5.57019 46.1352 11.6705 46.1352H16.9315C17.1819 46.1352 17.3847 46.3382 17.3847 46.5883V58.4486C17.3847 59.8508 19.1 60.5308 20.0606 59.5091L22.0317 57.4132V42.0129H22.0318Z" fill="#E63950"/>
<path d="M42.4112 14.3349C39.6068 11.5305 35.0599 11.5305 32.2554 14.3349L30.6713 15.919C30.2936 16.2967 29.681 16.2967 29.3033 15.919L27.7445 14.3602C24.9401 11.5558 20.3932 11.5558 17.5887 14.3602C14.7842 17.1646 14.7842 21.7115 17.5887 24.516L29.3043 36.2316C29.682 36.6093 30.2945 36.6093 30.6722 36.2316L42.4111 24.4907C45.2157 21.6862 45.2157 17.1394 42.4112 14.3349Z" fill="#EC5569"/>
<path d="M42.4112 14.3349C39.6068 11.5305 35.0599 11.5305 32.2554 14.3349L30.6713 15.919C30.2936 16.2967 29.681 16.2967 29.3033 15.919L27.7445 14.3602C24.9401 11.5558 20.3932 11.5558 17.5887 14.3602C14.7842 17.1646 14.7842 21.7115 17.5887 24.516L29.3043 36.2316C29.682 36.6093 30.2945 36.6093 30.6722 36.2316L42.4111 24.4907C45.2157 21.6862 45.2157 17.1394 42.4112 14.3349Z" fill="#FFF5F5"/>
<path d="M21.3451 24.5162C18.5407 21.7118 18.5407 17.1649 21.3451 14.3604C22.265 13.4405 23.3729 12.8243 24.5447 12.508C22.144 11.8597 19.473 12.4759 17.5887 14.3604C14.7842 17.1648 14.7842 21.7117 17.5887 24.5162L29.3043 36.2318C29.682 36.6095 30.2945 36.6095 30.6722 36.2318L31.8664 35.0375L21.3451 24.5162Z" fill="#DCE6EB"/>
</svg>
